:version 1.10
:name ASF
:units
  mass 1
  length 1
  angle deg
:documentation
  ASF file generated by Kaydara
:root
  axis xyz
  order  tx ty tz rx ry rz
  position 0 0 0
  orientation 0 0 0
:bonedata
  begin
    id 1
    name lfemurDummy
    direction 0.61522 -0.761478 0.204097
    length 5.68318
    axis 0 -0 0 xyz
  end
  begin
    id 2
    name lfemur
    direction 0.34202 -0.939693 -5.84747e-008
    length 16.9147
    axis 0 -0 20 xyz
    dof rx ry rz
    limits( -inf , inf )
( -inf , inf )
( -inf , inf )

  end
  begin
    id 3
    name ltibia
    direction 0.34202 -0.939693 1.20839e-009
    length 18.0532
    axis 0 -0 20 xyz
    dof rz ry rx
    limits( -inf , inf )
( -inf , inf )
( -inf , inf )

  end
  begin
    id 4
    name lfoot
    direction 0.0841971 -0.23133 0.969225
    length 5.23822
    axis -90 7.62852e-016 20 xyz
    dof ry rx rz
    limits( -inf , inf )
( -inf , inf )
( -inf , inf )

  end
  begin
    id 5
    name ltoes
    direction 0 0 0
    length 0
    axis 0 0 0 xyz
    dof rz ry rx
    limits( -inf , inf )
( -inf , inf )
( -inf , inf )

  end
  begin
    id 6
    name rfemurDummy
    direction -0.625247 -0.75382 0.202044
    length 5.74091
    axis 0 -0 0 xyz
  end
  begin
    id 7
    name rfemur
    direction -0.34202 -0.939693 -1.47013e-008
    length 16.4922
    axis 0 -0 -20 xyz
    dof rx ry rz
    limits( -inf , inf )
( -inf , inf )
( -inf , inf )

  end
  begin
    id 8
    name rtibia
    direction -0.34202 -0.939693 -7.74345e-010
    length 18.2421
    axis 0 -0 -20 xyz
    dof rz ry rx
    limits( -inf , inf )
( -inf , inf )
( -inf , inf )

  end
  begin
    id 9
    name rfoot
    direction -0.124331 -0.341598 0.931586
    length 5.45787
    axis -90 -7.62852e-016 -20 xyz
    dof ry rx rz
    limits( -inf , inf )
( -inf , inf )
( -inf , inf )

  end
  begin
    id 10
    name rtoes
    direction 0 0 0
    length 0
    axis 0 0 0 xyz
    dof rz ry rx
    limits( -inf , inf )
( -inf , inf )
( -inf , inf )

  end
  begin
    id 11
    name lowerbackDummy
    direction 0 0 0
    length 0
    axis 0 -0 0 xyz
  end
  begin
    id 12
    name lowerback
    direction -0.0218484 0.994884 -0.0986304
    length 4.45607
    axis 0 -0 0 xyz
    dof rx ry rz
    limits( -inf , inf )
( -inf , inf )
( -inf , inf )

  end
  begin
    id 13
    name upperback
    direction -0.00973057 0.999717 -0.0217111
    length 4.47449
    axis 0 -0 0 xyz
    dof rx ry rz
    limits( -inf , inf )
( -inf , inf )
( -inf , inf )

  end
  begin
    id 14
    name thorax
    direction -0.000928171 0.999699 0.0245198
    length 4.50973
    axis 0 -0 0 xyz
    dof rx ry rz
    limits( -inf , inf )
( -inf , inf )
( -inf , inf )

  end
  begin
    id 15
    name rclavicle
    direction -0.9009 0.425937 -0.0834055
    length 7.28587
    axis 0 -0 0 xyz
    dof rx ry rz
    limits( -inf , inf )
( -inf , inf )
( -inf , inf )

  end
  begin
    id 16
    name rhumerus
    direction -1 -2.23604e-007 -1.42637e-007
    length 13.5704
    axis 180 30 90 xyz
    dof rx ry rz
    limits( -inf , inf )
( -inf , inf )
( -inf , inf )

  end
  begin
    id 17
    name rradius
    direction -1 5.68281e-008 -4.4952e-007
    length 8.06782
    axis 180 30 90 xyz
    dof rz ry rx
    limits( -inf , inf )
( -inf , inf )
( -inf , inf )

  end
  begin
    id 18
    name rwrist
    direction -1 1.51393e-007 1.38143e-007
    length 4.03391
    axis -90 -90 0 xyz
    dof rz rx ry
    limits( -inf , inf )
( -inf , inf )
( -inf , inf )

  end
  begin
    id 19
    name rthumb
    direction 0 0 0
    length 0
    axis 0 0 0 xyz
    dof ry rx rz
    limits( -inf , inf )
( -inf , inf )
( -inf , inf )

  end
  begin
    id 20
    name rhand
    direction -1 -3.34077e-007 -5.59631e-007
    length 1.29744
    axis -90 -90 0 xyz
    dof ry rx rz
    limits( -inf , inf )
( -inf , inf )
( -inf , inf )

  end
  begin
    id 21
    name rfingers
    direction 0 0 0
    length 0
    axis 0 0 0 xyz
    dof rz ry rx
    limits( -inf , inf )
( -inf , inf )
( -inf , inf )

  end
  begin
    id 22
    name lclavicle
    direction 0.940017 0.332249 -0.0773232
    length 8.29589
    axis 0 -0 0 xyz
    dof rx ry rz
    limits( -inf , inf )
( -inf , inf )
( -inf , inf )

  end
  begin
    id 23
    name lhumerus
    direction 1 7.41158e-008 -1.44768e-008
    length 12.0042
    axis 180 -30 -90 xyz
    dof rx ry rz
    limits( -inf , inf )
( -inf , inf )
( -inf , inf )

  end
  begin
    id 24
    name lradius
    direction 1 -1.32972e-007 3.10821e-007
    length 8.1902
    axis 180 -30 -90 xyz
    dof rz ry rx
    limits( -inf , inf )
( -inf , inf )
( -inf , inf )

  end
  begin
    id 25
    name lwrist
    direction 1 3.08957e-007 4.01394e-007
    length 4.09509
    axis -90 90 0 xyz
    dof rz rx ry
    limits( -inf , inf )
( -inf , inf )
( -inf , inf )

  end
  begin
    id 26
    name lthumb
    direction 0 0 0
    length 0
    axis 0 0 0 xyz
    dof ry rx rz
    limits( -inf , inf )
( -inf , inf )
( -inf , inf )

  end
  begin
    id 27
    name lhand
    direction 1 -1.64125e-007 -6.99514e-007
    length 1.37229
    axis -90 90 0 xyz
    dof ry rx rz
    limits( -inf , inf )
( -inf , inf )
( -inf , inf )

  end
  begin
    id 28
    name lfingers
    direction 0 0 0
    length 0
    axis 0 0 0 xyz
    dof rz ry rx
    limits( -inf , inf )
( -inf , inf )
( -inf , inf )

  end
  begin
    id 29
    name lowerneck
    direction -0.030798 0.998024 0.0547665
    length 3.93918
    axis 0 -0 0 xyz
    dof rx ry rz
    limits( -inf , inf )
( -inf , inf )
( -inf , inf )

  end
  begin
    id 30
    name upperneck
    direction 0.0531588 0.996611 -0.0627736
    length 3.95491
    axis 0 -0 0 xyz
    dof rx ry rz
    limits( -inf , inf )
( -inf , inf )
( -inf , inf )

  end
  begin
    id 31
    name head
    direction 0 0 0
    length 0
    axis 0 0 0 xyz
    dof rx ry rz
    limits( -inf , inf )
( -inf , inf )
( -inf , inf )

  end
:hierarchy
  begin
    root lfemurDummy rfemurDummy lowerbackDummy
    lfemurDummy lfemur
    lfemur ltibia
    ltibia lfoot
    lfoot ltoes
    rfemurDummy rfemur
    rfemur rtibia
    rtibia rfoot
    rfoot rtoes
    lowerbackDummy lowerback
    lowerback upperback
    upperback thorax
    thorax rclavicle lclavicle lowerneck
    rclavicle rhumerus
    rhumerus rradius
    rradius rwrist
    rwrist rthumb rhand
    rhand rfingers
    lclavicle lhumerus
    lhumerus lradius
    lradius lwrist
    lwrist lthumb lhand
    lhand lfingers
    lowerneck upperneck
    upperneck head
  end

:SAMPLES-PER-SECOND 30
:FULLY-SPECIFIED
:DEGREES
55
root  3.455799959 36.4624444 1.985242235 -11.90600586 -5.988998413 7.896972656
lowerback  11.91329956 0.4752030075 5.100249767
upperback  4.306879997 1.394340038 6.81415987
thorax  -2.209249973 0.6763470173 4.074379921
lowerneck  -2.041039944 2.300349951 -2.919280052
upperneck  11.72140026 3.653670073 -3.381099939
head  4.222430229 1.530599952 -0.4608820081
lclavicle  0 -9.442270133e-015 7.951389973e-016
lhumerus  -1.289909959 -21.16790009 91.31109619
lradius  2.537723285e-031 -2.455362411e-031 135.9450073
lwrist  -7.062250077e-031 -0 4.202670097
lhand  -1.496451383e-031 -27.76390076 20.11240005
lfingers  90 7.125020027 -90
lthumb  89.89689403 5.08795885 91.16245106
rclavicle  0 -9.442270133e-015 7.951389973e-016
rhumerus  10.41940022 24.4109993 -84.49099731
rradius  -2.605499423e-031 2.38332054e-031 137.5500031
rwrist  7.062250077e-031 -0 -6.519480228
rhand  -7.920061211e-032 -33.2840004 9.303460121
rfingers  -90 -7.125020027 -90
rthumb  -92.93752616 -24.25625642 -97.11982154
rfemur  0.1151219979 16.52910042 1.687170029
rtibia  -0 0 61.8742981
rfoot  -5.068856355e-032 -29.44949913 -2.816260099
rtoes  5.373923086 19.29304026 -105.8922705
lfemur  -27.6644001 11.76980019 -20.39710045
ltibia  -0 0 63.31269836
lfoot  4.616376891e-032 -17.03210068 -1.620839953
ltoes  -4.250644065 -19.5611806 -102.515957
56
root  3.543266537 36.72355592 1.949831069 -11.36401367 -7.652999878 7.893981934
lowerback  11.7262001 0.3679229915 4.900219917
upperback  4.568230152 1.177279949 6.64496994
thorax  -1.825929999 0.5690150261 4.03730011
lowerneck  -2.125890017 2.655200005 -2.680890083
upperneck  11.78509998 4.111259937 -3.299690008
head  4.267099857 1.766489983 -0.4544219971
lclavicle  0 -9.442270133e-015 7.951389973e-016
lhumerus  -0.8590890169 -21.1534996 91.20529938
lradius  2.525866097e-031 -2.467558408e-031 135.6690063
lwrist  -1.059337512e-030 -1.765562519e-031 4.269659996
lhand  -1.496451383e-031 -27.76390076 20.11240005
lfingers  90 7.125020027 -90
lthumb  89.89689403 5.08795885 91.16245106
rclavicle  0 -9.442270133e-015 7.951389973e-016
rhumerus  10.20930004 24.06450081 -84.14980316
rradius  -2.586113096e-031 2.404342549e-031 137.0859985
rwrist  7.062250077e-031 -0 -7.519480228
rhand  -7.920061211e-032 -33.2840004 9.303460121
rfingers  -90 -7.125020027 -90
rthumb  -92.93752616 -24.25625642 -97.11982154
rfemur  -1.111479998 16.92169952 1.158499956
rtibia  -0 0 60.87540054
rfoot  -5.019460571e-032 -28.43490028 -2.273449898
rtoes  5.373923086 19.29304026 -105.8922705
lfemur  -27.40180016 11.20650005 -20.18569946
ltibia  -0 0 62.13000107
lfoot  5.179076972e-032 -16.5060997 -0.7805989981
ltoes  -4.250644065 -19.5611806 -102.515957
57
root  3.633555465 37.03866793 1.920493381 -10.84997559 -9.326004028 8.197998047
lowerback  11.56569958 0.2045080066 4.281630039
upperback  4.666920185 0.8599720001 6.435249805
thorax  -1.631559968 0.4060840011 4.204889774
lowerneck  -1.834990025 3.132040024 -2.619509935
upperneck  11.90060043 4.729290009 -3.222729921
head  4.253880024 2.076790094 -0.4175409973
lclavicle  0 -9.442270133e-015 7.951389973e-016
lhumerus  -0.7183380127 -20.85899925 91.15930176
lradius  2.510528444e-031 -2.483161487e-031 135.3139954
lwrist  -3.531125038e-031 -1.765562519e-031 3.975889921
lhand  -1.496451383e-031 -27.76390076 20.11240005
lfingers  90 7.125020027 -90
lthumb  89.89689403 5.08795885 91.16245106
rclavicle  0 -9.442270133e-015 7.951389973e-016
rhumerus  9.916350365 24.07649994 -83.69380188
rradius  -2.555993626e-031 2.436337543e-031 136.3730011
rwrist  7.062250077e-031 1.765562519e-031 -8.123140335
rhand  -7.920061211e-032 -33.2840004 9.303460121
rfingers  -90 -7.125020027 -90
rthumb  -92.93752616 -24.25625642 -97.11982154
rfemur  -2.349070072 17.40609932 0.3129410148
rtibia  -0 0 59.77560043
rfoot  -7.448497432e-032 -27.26650047 -1.897729993
rtoes  5.373923086 19.29304026 -105.8922705
lfemur  -27.03560066 10.61069965 -20.31089973
ltibia  -0 0 60.85639954
lfoot  4.839473071e-032 -15.8579998 -0.03680929914
ltoes  -4.250644065 -19.5611806 -102.515957
58
root  3.72875544 37.36333472 1.905311186 -10.36700439 -11.11000061 8.568969727
lowerback  11.5340004 0.1912750006 3.759979963
upperback  4.739480019 0.7641940117 6.056330204
thorax  -1.538400054 0.3545460105 4.109360218
lowerneck  -2.005500078 3.463890076 -2.181020021
upperneck  12.28629971 5.171239853 -3.236119986
head  4.443870068 2.300699949 -0.4738120139
lclavicle  0 -9.442270133e-015 7.951389973e-016
lhumerus  -0.6379359961 -21.03790092 90.99659729
lradius  2.503106681e-031 -2.490642684e-031 135.1430054
lwrist  -7.062250077e-031 1.765562519e-031 3.664900064
lhand  -1.496451383e-031 -27.76390076 20.11240005
lfingers  90 7.125020027 -90
lthumb  89.89689403 5.08795885 91.16245106
rclavicle  0 -9.442270133e-015 7.951389973e-016
rhumerus  9.616149902 23.88890076 -83.38600159
rradius  -2.529222453e-031 2.464118062e-031 135.746994
rwrist  0 -1.765562519e-031 -8.362380028
rhand  -7.920061211e-032 -33.2840004 9.303460121
rfingers  -90 -7.125020027 -90
rthumb  -92.93752616 -24.25625642 -97.11982154
rfemur  -3.593219995 18.04199982 -0.5784019828
rtibia  -0 0 58.62009811
rfoot  -4.909771919e-032 -25.97249985 -1.353410006
rtoes  5.373923086 19.29304026 -105.8922705
lfemur  -26.64800072 9.948430061 -20.47730064
ltibia  -0 0 59.5943985
lfoot  5.143745404e-032 -15.12139988 0.5198860168
ltoes  -4.250644065 -19.5611806 -102.515957
59
root  3.828333307 37.68600103 1.891691103 -9.804992676 -13.23399353 8.281005859
lowerback  11.63230038 0.1748189926 3.87225008
upperback  4.593550205 0.7635350227 5.929580212
thorax  -1.741590023 0.3524030149 3.911829948
lowerneck  -1.529649973 3.85461998 -2.045860052
upperneck  12.61100006 5.672790051 -3.176199913
head  4.474480152 2.553090096 -0.4631370008
lclavicle  0 -9.442270133e-015 7.951389973e-016
lhumerus  -1.213919997 -21.13279915 91.14920044
lradius  2.504627158e-031 -2.489113665e-031 135.1779938
lwrist  -3.531125038e-031 -3.531125038e-031 3.227109909
lhand  -1.496451383e-031 -27.76390076 20.11240005
lfingers  90 7.125020027 -90
lthumb  89.89689403 5.08795885 91.16245106
rclavicle  0 -9.442270133e-015 7.951389973e-016
rhumerus  8.758359909 24.04560089 -83.31749725
rradius  -2.513170922e-031 2.48048704e-031 135.375
rwrist  7.062250077e-031 -1.765562519e-031 -8.275050163
rhand  -7.920061211e-032 -33.2840004 9.303460121
rfingers  -90 -7.125020027 -90
rthumb  -92.93752616 -24.25625642 -97.11982154
rfemur  -4.889520168 18.92679977 -0.6125450134
rtibia  -0 0 57.40879822
rfoot  -4.852391222e-032 -24.54500008 -0.9365109801
rtoes  5.373923086 19.29304026 -105.8922705
lfemur  -26.28409958 9.554240227 -19.8118
ltibia  -0 0 58.41899872
lfoot  5.692802108e-032 -14.26049995 1.075240016
ltoes  -4.250644065 -19.5611806 -102.515957
60
root  3.923711251 38.02400123 1.886086577 -9.213989258 -15.51600647 7.580993652
lowerback  11.97099972 0.1976040006 4.523519993
upperback  4.542270184 0.8835009933 5.725530148
thorax  -1.970010042 0.4131340086 3.313460112
lowerneck  -1.705369949 4.185959816 -1.741899967
upperneck  13.07750034 6.100749969 -2.996309996
head  4.688529968 2.771790028 -0.4284340143
lclavicle  0 -9.442270133e-015 7.951389973e-016
lhumerus  -1.389230013 -21.55270004 90.87989807
lradius  2.508404073e-031 -2.485307434e-031 135.2649994
lwrist  -7.062250077e-031 -1.765562519e-031 3.079580069
lhand  -1.496451383e-031 -27.76390076 20.11240005
lfingers  90 7.125020027 -90
lthumb  89.89689403 5.08795885 91.16245106
rclavicle  0 -9.442270133e-015 7.951389973e-016
rhumerus  8.207960129 23.99679947 -83.34559631
rradius  -2.503410453e-031 2.490337354e-031 135.1499939
rwrist  7.062250077e-031 -0 -8.179530144
rhand  -7.920061211e-032 -33.2840004 9.303460121
rfingers  -90 -7.125020027 -90
rthumb  -92.93752616 -24.25625642 -97.11982154
rfemur  -6.126490116 19.81509972 -0.09566859901
rtibia  -0 0 56.17110062
rfoot  -4.798515983e-032 -23.09609985 -1.023399949
rtoes  5.373923086 19.29304026 -105.8922705
lfemur  -25.86039925 9.349710464 -18.61870003
ltibia  -0 0 57.3205986
lfoot  5.668108919e-032 -13.24279976 1.58107996
ltoes  -4.250644065 -19.5611806 -102.515957
61
root  3.98900002 38.36844437 1.896651148 -8.762023926 -17.7230072 7.130981445
lowerback  12.00699997 0.2607379854 4.561369896
upperback  4.485509872 0.969145 5.617139816
thorax  -2.048779964 0.4529379904 3.165970087
lowerneck  -1.040920019 4.441430092 -1.791419983
upperneck  13.11709976 6.398990154 -2.832220078
head  4.564439774 2.928159952 -0.3682320118
lclavicle  0 -9.442270133e-015 7.951389973e-016
lhumerus  -1.789319992 -21.87210083 90.77359772
lradius  2.518403821e-031 -2.47517398e-031 135.4960022
lwrist  -1.059337512e-030 -1.765562519e-031 3.122129917
lhand  -1.496451383e-031 -27.76390076 20.11240005
lfingers  90 7.125020027 -90
lthumb  89.89689403 5.08795885 91.16245106
rclavicle  0 -9.442270133e-015 7.951389973e-016
rhumerus  7.576509953 23.97550011 -83.23660278
rradius  -2.503236685e-031 2.490512023e-031 135.1459961
rwrist  0 -0 -8.08837986
rhand  -7.920061211e-032 -33.2840004 9.303460121
rfingers  -90 -7.125020027 -90
rthumb  -92.93752616 -24.25625642 -97.11982154
rfemur  -7.158249855 20.62100029 0.2479040027
rtibia  -0 0 54.98260117
rfoot  -5.941830527e-032 -21.78759956 -1.460860014
rtoes  5.373923086 19.29304026 -105.8922705
lfemur  -25.33270073 8.980050087 -17.64139938
ltibia  -0 0 56.23509979
lfoot  4.513201538e-032 -12.04090023 1.823619962
ltoes  -4.250644065 -19.5611806 -102.515957
